<?xml version="1.0" standalone="no"?><!DOCTYPE svg PUBLIC "-//W3C//DTD SVG 1.1//EN" "http://www.w3.org/Graphics/SVG/1.1/DTD/svg11.dtd"><svg height="1024" node-id="1" sillyvg="true" template-height="1024" template-width="1024" version="1.1" viewBox="0 0 1024 1024" width="1024" xmlns="http://www.w3.org/2000/svg" xmlns:xlink="http://www.w3.org/1999/xlink"><defs node-id="105"><linearGradient gradientUnits="objectBoundingBox" id="linearGradient-1" node-id="5" spreadMethod="pad" x1="0.4856362" x2="0.27548808" y1="-0.15492247" y2="0.97287446"><stop offset="0" stop-color="#0589fa"></stop><stop offset="0.20692922" stop-color="#0064fd"></stop><stop offset="0.20939279" stop-color="#1773fe"></stop><stop offset="0.3699743" stop-color="#569aff"></stop><stop offset="0.6604576" stop-color="#2086fe"></stop><stop offset="0.6629262" stop-color="#097bff"></stop><stop offset="0.86282945" stop-color="#007dfe"></stop><stop offset="1" stop-color="#0a59dc"></stop></linearGradient><linearGradient gradientUnits="objectBoundingBox" id="linearGradient-2" node-id="14" spreadMethod="pad" x1="0.000000000000000021370923" x2="1" y1="0.45497262" y2="0.45497262"><stop offset="0" stop-color="#556bed"></stop><stop offset="0.35553563" stop-color="#2c82f4"></stop><stop offset="0.8170469" stop-color="#3e5ffb"></stop><stop offset="1" stop-color="#3d55ea" stop-opacity="0.9664281"></stop></linearGradient><linearGradient gradientUnits="objectBoundingBox" id="linearGradient-3" node-id="19" spreadMethod="pad" x1="0.2827418" x2="0.83721113" y1="0.19760361" y2="0.8906383"><stop offset="0" stop-color="#0ef1fd"></stop><stop offset="1" stop-color="#06defb" stop-opacity="0.10484047"></stop></linearGradient><linearGradient gradientUnits="objectBoundingBox" id="linearGradient-5" node-id="29" spreadMethod="pad" x1="0.9981698" x2="0" y1="0.5" y2="0.5"><stop offset="0" stop-color="#a7c2ff"></stop><stop offset="1" stop-color="#eaf1ff"></stop></linearGradient><linearGradient gradientUnits="objectBoundingBox" id="linearGradient-6" node-id="32" spreadMethod="pad" x1="1" x2="0" y1="0.5" y2="0.5"><stop offset="0" stop-color="#c8d1ff"></stop><stop offset="1" stop-color="#ffffff"></stop></linearGradient><linearGradient gradientUnits="objectBoundingBox" id="linearGradient-7" node-id="35" spreadMethod="pad" x1="0.5" x2="0.5" y1="0" y2="1"><stop offset="0" stop-color="#1f5fff" stop-opacity="0"></stop><stop offset="1" stop-color="#0d3aff" stop-opacity="0.3716401"></stop></linearGradient><linearGradient gradientUnits="objectBoundingBox" id="linearGradient1" node-id="159" spreadMethod="pad" x1="0.5" x2="0.5" y1="0" y2="1"><stop offset="0" stop-color="#3e65ff"></stop><stop offset="1" stop-color="#72f0ff"></stop></linearGradient><linearGradient gradientUnits="objectBoundingBox" id="linearGradient-8" node-id="38" spreadMethod="pad" x1="0.5" x2="0.5" y1="0" y2="1"><stop offset="0" stop-color="#3e65ff"></stop><stop offset="1" stop-color="#72f0ff"></stop></linearGradient><linearGradient gradientUnits="objectBoundingBox" id="linearGradient-10" node-id="43" spreadMethod="pad" x1="0.5" x2="0.5" y1="0.25170276" y2="1"><stop offset="0" stop-color="#ffffff" stop-opacity="0"></stop><stop offset="1" stop-color="#92c5ff" stop-opacity="0.1981261"></stop></linearGradient><linearGradient gradientUnits="objectBoundingBox" id="linearGradient-11" node-id="46" spreadMethod="pad" x1="0.5" x2="0.5" y1="0.21499257" y2="1"><stop offset="0" stop-color="#ffffff" stop-opacity="0"></stop><stop offset="1" stop-color="#92c5ff" stop-opacity="0.1981261"></stop></linearGradient><linearGradient gradientUnits="objectBoundingBox" id="linearGradient-12" node-id="49" spreadMethod="pad" x1="-0.00000000000000004965646" x2="1" y1="0.48338035" y2="0.5257215"><stop offset="0" stop-color="#556bed"></stop><stop offset="0.22628002" stop-color="#2c82f4"></stop><stop offset="0.42540547" stop-color="#2b5ced"></stop><stop offset="0.60926175" stop-color="#6874ff"></stop><stop offset="0.7225545" stop-color="#3e5ffb"></stop><stop offset="0.80829084" stop-color="#3d55ea" stop-opacity="0.9664281"></stop><stop offset="0.9020706" stop-color="#4675ff"></stop><stop offset="1" stop-color="#9fe2fd"></stop></linearGradient><linearGradient gradientUnits="objectBoundingBox" id="linearGradient-14" node-id="61" spreadMethod="pad" x1="0.5" x2="0.5" y1="0.86286473" y2="1.0687842"><stop offset="0" stop-color="#5cb3ff"></stop><stop offset="0.9996176" stop-color="#dcf2ff"></stop></linearGradient><radialGradient cx="0.5" cy="0.5" fx="0.5" fy="0.5" gradientUnits="objectBoundingBox" id="radialGradient-13" node-id="58" r="1.1703764" rev="12" spreadMethod="pad"><stop offset="0" stop-color="#1e5dff"></stop><stop offset="1" stop-color="#2a64f6"></stop></radialGradient><radialGradient cx="0.5" cy="0.5" fx="0.5" fy="0.5" gradientUnits="objectBoundingBox" id="radialGradient-15" node-id="64" r="0.5" rev="11" spreadMethod="pad"><stop offset="0" stop-color="#00f6ff"></stop><stop offset="1" stop-color="#00fffe" stop-opacity="0"></stop></radialGradient><radialGradient cx="0.5" cy="0.5" fx="0.5" fy="0.5" gradientUnits="objectBoundingBox" id="radialGradient-16" node-id="67" r="0.43823937" rev="10" spreadMethod="pad"><stop offset="0" stop-color="#ffffff" stop-opacity="0.7709517"></stop><stop offset="1" stop-color="#ffffff" stop-opacity="0"></stop></radialGradient><radialGradient cx="0.5" cy="0.5" fx="0.5" fy="0.5" gradientUnits="objectBoundingBox" id="radialGradient1" node-id="226" r="0.364086" rev="9" spreadMethod="pad"><stop offset="0" stop-color="#ffffff"></stop><stop offset="1" stop-color="#006dff" stop-opacity="0"></stop></radialGradient><radialGradient cx="0.5" cy="0.5" fx="0.5" fy="0.5" gradientUnits="objectBoundingBox" id="radialGradient2" node-id="233" r="0.364086" rev="8" spreadMethod="pad"><stop offset="0" stop-color="#ffffff"></stop><stop offset="1" stop-color="#006dff" stop-opacity="0"></stop></radialGradient><radialGradient cx="0.5" cy="0.5" fx="0.5" fy="0.5" gradientUnits="objectBoundingBox" id="radialGradient3" node-id="240" r="0.364086" rev="7" spreadMethod="pad"><stop offset="0" stop-color="#ffffff"></stop><stop offset="1" stop-color="#006dff" stop-opacity="0"></stop></radialGradient><radialGradient cx="0.5" cy="0.5" fx="0.5" fy="0.5" gradientUnits="objectBoundingBox" id="radialGradient4" node-id="247" r="0.364086" rev="6" spreadMethod="pad"><stop offset="0" stop-color="#ffffff"></stop><stop offset="1" stop-color="#006dff" stop-opacity="0"></stop></radialGradient><radialGradient cx="0.5" cy="0.5" fx="0.5" fy="0.5" gradientUnits="objectBoundingBox" id="radialGradient5" node-id="254" r="0.364086" rev="5" spreadMethod="pad"><stop offset="0" stop-color="#ffffff"></stop><stop offset="1" stop-color="#006dff" stop-opacity="0"></stop></radialGradient><radialGradient cx="0.5" cy="0.5" fx="0.5" fy="0.5" gradientUnits="objectBoundingBox" id="radialGradient6" node-id="261" r="0.364086" rev="4" spreadMethod="pad"><stop offset="0" stop-color="#ffffff"></stop><stop offset="1" stop-color="#006dff" stop-opacity="0"></stop></radialGradient><radialGradient cx="0.5" cy="0.5" fx="0.5" fy="0.5" gradientUnits="objectBoundingBox" id="radialGradient7" node-id="268" r="0.364086" rev="3" spreadMethod="pad"><stop offset="0" stop-color="#ffffff"></stop><stop offset="1" stop-color="#006dff" stop-opacity="0"></stop></radialGradient><radialGradient cx="0.5" cy="0.5" fx="0.5" fy="0.5" gradientUnits="objectBoundingBox" id="radialGradient8" node-id="275" r="0.364086" rev="2" spreadMethod="pad"><stop offset="0" stop-color="#ffffff"></stop><stop offset="1" stop-color="#006dff" stop-opacity="0"></stop></radialGradient><radialGradient cx="0.5" cy="0.5" fx="0.5" fy="0.5" gradientUnits="objectBoundingBox" id="radialGradient-17" node-id="70" r="0.364086" rev="1" spreadMethod="pad"><stop offset="0" stop-color="#ffffff"></stop><stop offset="1" stop-color="#006dff" stop-opacity="0"></stop></radialGradient><filter filterUnits="objectBoundingBox" height="143.39883" id="filter-4" node-id="22" width="154.959" x="-3.525" y="-6.518129"><feOffset color-interpolation-filters="linearRGB" dx="4" dy="0" in="SourceAlpha" result="shadowOffsetOuter1"></feOffset><feGaussianBlur color-interpolation-filters="linearRGB" in="shadowOffsetOuter1" result="shadowBlurOuter1" stdDeviation="1.5 1.5"></feGaussianBlur><feColorMatrix color-interpolation-filters="linearRGB" in="shadowBlurOuter1" result="shadowMatrixOuter1" type="matrix" values="0 0 0 0 0.15542425 0 0 0 0 0.31284916 0 0 0 0 0.7973279 0 0 0 0.40433785 0"></feColorMatrix><feMerge color-interpolation-filters="linearRGB" result="result4"><feMergeNode in="shadowMatrixOuter1"></feMergeNode><feMergeNode in="SourceGraphic"></feMergeNode></feMerge></filter><filter filterUnits="objectBoundingBox" height="102" id="filter-9" node-id="41" width="779.80804" x="3" y="396.58487"><feGaussianBlur color-interpolation-filters="linearRGB" in="SourceGraphic" result="result1" stdDeviation="0 0"></feGaussianBlur></filter></defs><path d="M 0.00 0.00 L 1024.00 0.00 L 1024.00 1024.00 L 0.00 1024.00 Z" fill="#082323" fill-opacity="0" fill-rule="nonzero" node-id="309" stroke="none" target-height="1024" target-width="1024" target-x="0" target-y="0"></path><g node-id="311"><path d="M 568.40 189.00 L 631.00 203.00 L 604.70 256.30 L 671.00 378.70 L 568.30 586.70 L 435.80 598.50 L 425.60 619.00 L 362.80 605.00 L 260.00 415.30 L 362.80 207.30 L 568.40 189.00 Z" fill="url(#linearGradient-1)" fill-rule="evenodd" group-id="1" id="形状结合" node-id="76" stroke="none" target-height="430" target-width="411" target-x="260" target-y="189"></path><path d="M 734.00 389.50 L 631.20 600.40 L 425.50 618.60 L 322.70 429.00 L 425.50 221.10 L 631.20 202.90 Z" fill="url(#linearGradient-2)" fill-rule="evenodd" group-id="1" id="多边形" node-id="77" stroke="none" target-height="415.69998" target-width="411.3" target-x="322.7" target-y="202.9"></path><path d="M 631.20 202.90 L 734.00 389.50 L 631.20 600.40 L 425.50 618.60 L 322.70 429.00 L 425.50 221.10 L 631.20 202.90 Z M 629.50 206.00 L 427.50 224.00 L 326.10 428.90 L 427.20 615.50 L 629.20 597.50 L 730.60 389.60 L 629.50 206.00 Z" fill="url(#linearGradient-3)" fill-rule="nonzero" group-id="1" id="多边形" node-id="78" stroke="none" target-height="415.69998" target-width="411.3" target-x="322.7" target-y="202.9"></path><g node-id="314"><path d="M 525.00 345.30 L 529.60 345.10 L 538.20 345.70 L 560.80 350.00 L 555.50 351.60 L 559.80 354.20 L 563.80 357.10 L 567.50 360.50 L 571.00 364.20 L 574.10 368.10 L 576.80 372.40 L 579.20 377.00 L 581.30 381.90 L 582.90 386.90 L 584.00 392.20 L 584.70 397.70 L 585.00 403.50 L 584.70 409.50 L 584.00 415.30 L 582.70 420.90 L 581.10 426.30 L 578.90 431.70 L 576.40 436.70 L 573.50 441.60 L 570.20 446.10 L 566.50 450.40 L 562.60 454.40 L 558.40 458.00 L 553.90 461.20 L 549.10 464.10 L 544.10 466.50 L 539.00 468.40 L 533.60 469.90 L 532.80 474.70 L 507.00 469.80 L 502.30 468.40 L 497.70 466.50 L 493.30 464.30 L 489.20 461.60 L 485.30 458.70 L 481.80 455.40 L 478.40 451.70 L 475.50 447.70 L 472.80 443.50 L 470.50 439.00 L 468.60 434.20 L 467.00 429.20 L 465.90 424.10 L 465.30 418.70 L 465.00 413.00 L 465.20 407.80 L 465.80 402.70 L 468.10 392.80 L 470.40 386.50 L 473.20 380.50 L 476.60 374.90 L 480.50 369.50 L 484.80 364.70 L 489.60 360.20 L 493.40 357.20 L 501.60 352.10 L 510.60 348.20 L 515.20 346.90 L 525.00 345.30 Z" fill="url(#linearGradient-5)" fill-rule="evenodd" filter="url(#filter-4)" group-id="1,4" id="形状结合" node-id="80" stroke="none" target-height="129.6" target-width="120" target-x="465" target-y="345.1"></path><path d="M 546.00 475.30 L 555.80 473.70 L 560.40 472.30 L 569.40 468.40 L 577.60 463.30 L 581.40 460.30 L 586.20 455.80 L 590.50 451.00 L 594.40 445.60 L 597.80 440.00 L 600.60 434.00 L 602.90 427.70 L 605.20 417.80 L 606.00 407.50 L 605.20 397.30 L 602.90 387.80 L 599.30 379.00 L 597.00 375.00 L 591.50 367.60 L 588.40 364.30 L 581.40 358.60 L 573.60 354.10 L 565.00 351.00 L 560.50 349.90 L 555.80 349.30 L 551.00 349.10 L 546.00 349.30 L 541.00 349.90 L 536.20 350.90 L 527.00 354.00 L 522.60 356.10 L 514.40 361.20 L 510.60 364.20 L 505.80 368.70 L 501.50 373.50 L 497.60 378.90 L 494.20 384.50 L 491.40 390.50 L 489.10 396.80 L 487.70 401.70 L 486.20 411.80 L 486.00 417.00 L 486.80 427.30 L 487.80 432.10 L 490.70 441.20 L 495.00 449.50 L 497.60 453.30 L 503.60 460.20 L 510.60 465.90 L 514.40 468.30 L 522.60 472.10 L 531.50 474.60 L 536.20 475.20 L 541.00 475.40 L 546.00 475.30 Z" fill="url(#linearGradient-6)" fill-rule="evenodd" filter="url(#filter-4)" group-id="1,4" id="椭圆形" node-id="81" stroke="none" target-height="126.29999" target-width="120" target-x="486" target-y="349.1"></path></g></g><g node-id="312"><path d="M 139.60 405.40 L 884.60 405.40 L 779.70 730.60 L 244.50 730.60 Z" fill="url(#linearGradient-7)" fill-rule="evenodd" group-id="2" id="矩形" node-id="83" stroke="none" target-height="325.19998" target-width="745" target-x="139.6" target-y="405.4"></path><g node-id="315"><path d="M 902.40 853.00 L 902.10 854.90 L 901.30 856.90 L 899.70 859.00 L 897.30 861.20 L 893.90 863.60 L 889.00 866.20 L 882.50 869.10 L 874.10 872.10 L 863.50 875.20 L 850.30 878.50 L 837.80 881.10 L 806.90 886.40 L 788.20 889.10 L 750.10 893.40 L 728.80 895.40 L 696.50 898.00 L 661.70 900.10 L 626.20 901.80 L 588.90 903.00 L 551.20 903.70 L 512.50 904.00 L 473.80 903.70 L 436.10 903.00 L 398.80 901.80 L 363.30 900.10 L 328.50 898.00 L 296.20 895.40 L 274.90 893.40 L 236.80 889.10 L 218.10 886.40 L 187.20 881.10 L 174.70 878.50 L 161.50 875.20 L 150.90 872.10 L 142.50 869.10 L 135.90 866.20 L 131.10 863.60 L 127.70 861.20 L 125.30 859.00 L 123.70 856.90 L 122.90 854.90 L 122.60 853.00 L 122.90 851.10 L 123.70 849.10 L 125.30 847.00 L 127.70 844.80 L 131.10 842.40 L 135.90 839.80 L 142.50 836.90 L 150.90 833.90 L 161.50 830.80 L 174.70 827.50 L 187.20 824.90 L 218.10 819.60 L 236.80 816.90 L 274.90 812.60 L 296.20 810.60 L 328.50 808.00 L 363.30 805.90 L 398.80 804.20 L 436.10 803.00 L 473.80 802.30 L 512.50 802.00 L 551.20 802.30 L 588.90 803.00 L 626.20 804.20 L 661.70 805.90 L 696.50 808.00 L 728.80 810.60 L 750.10 812.60 L 788.20 816.90 L 806.90 819.60 L 837.80 824.90 L 850.30 827.50 L 863.50 830.80 L 874.10 833.90 L 882.50 836.90 L 889.00 839.80 L 893.90 842.40 L 897.30 844.80 L 899.70 847.00 L 901.30 849.10 L 902.10 851.10 L 902.40 853.00 Z" fill="#001d69" fill-opacity="0.3005354" fill-rule="evenodd" filter="url(#filter-9)" group-id="2,5" id="椭圆形备份-2" node-id="84" stroke="url(#linearGradient1)" stroke-linecap="butt" stroke-width="6" target-height="102" target-width="779.80005" target-x="122.6" target-y="802"></path></g><path d="M 905.40 853.40 L 905.10 855.50 L 904.20 857.60 L 902.70 859.80 L 900.20 862.10 L 896.80 864.70 L 891.90 867.40 L 885.40 870.40 L 876.90 873.60 L 866.20 876.90 L 852.90 880.40 L 840.30 883.20 L 809.20 888.80 L 790.30 891.60 L 751.90 896.20 L 730.50 898.30 L 697.90 901.00 L 662.80 903.30 L 627.10 905.10 L 589.50 906.40 L 551.50 907.10 L 512.50 907.40 L 473.50 907.10 L 435.50 906.40 L 397.90 905.10 L 362.10 903.30 L 327.10 901.00 L 294.50 898.30 L 273.10 896.20 L 234.70 891.60 L 215.80 888.80 L 184.70 883.20 L 172.10 880.40 L 158.80 876.90 L 148.10 873.60 L 139.60 870.40 L 133.00 867.40 L 128.20 864.70 L 124.70 862.10 L 122.30 859.80 L 120.80 857.60 L 119.90 855.50 L 119.60 853.40 L 119.90 851.40 L 120.80 849.30 L 122.30 847.10 L 124.70 844.70 L 128.20 842.10 L 133.00 839.40 L 139.60 836.40 L 148.10 833.20 L 158.80 829.90 L 172.10 826.40 L 184.70 823.60 L 215.80 818.00 L 234.70 815.20 L 273.10 810.60 L 294.50 808.50 L 327.10 805.80 L 362.10 803.50 L 397.90 801.80 L 435.50 800.50 L 473.50 799.70 L 512.50 799.40 L 551.50 799.70 L 589.50 800.50 L 627.10 801.80 L 662.80 803.50 L 697.90 805.80 L 730.50 808.50 L 751.90 810.60 L 790.30 815.20 L 809.20 818.00 L 840.30 823.60 L 852.90 826.40 L 866.20 829.90 L 876.90 833.20 L 885.40 836.40 L 891.90 839.40 L 896.80 842.10 L 900.20 844.70 L 902.70 847.10 L 904.20 849.30 L 905.10 851.40 L 905.40 853.40 Z" fill="#001d69" fill-opacity="0.3005354" fill-rule="evenodd" group-id="2" id="椭圆形备份-7" node-id="85" stroke="none" target-height="108" target-width="785.80005" target-x="119.6" target-y="799.4"></path><path d="M 512.50 799.40 L 573.60 800.10 L 602.60 800.80 L 659.10 803.30 L 711.40 806.80 L 758.20 811.30 L 780.70 814.00 L 801.00 816.80 L 819.10 819.60 L 837.10 823.00 L 852.50 826.30 L 865.50 829.70 L 875.40 832.70 L 883.50 835.60 L 889.90 838.40 L 895.00 841.00 L 898.60 843.40 L 901.30 845.60 L 903.20 847.70 L 904.40 849.60 L 905.10 851.50 L 905.40 853.40 L 905.10 855.30 L 904.40 857.20 L 903.20 859.20 L 901.30 861.20 L 898.60 863.50 L 895.00 865.80 L 889.90 868.50 L 883.50 871.20 L 875.40 874.10 L 865.50 877.20 L 852.50 880.50 L 837.10 883.80 L 819.10 887.20 L 801.00 890.10 L 780.70 892.90 L 735.70 897.90 L 685.30 901.90 L 631.60 904.90 L 602.60 906.00 L 543.60 907.20 L 481.40 907.20 L 451.40 906.80 L 393.40 904.90 L 339.70 901.90 L 313.60 900.00 L 266.70 895.60 L 244.20 892.90 L 224.00 890.10 L 205.90 887.20 L 187.80 883.80 L 172.50 880.50 L 159.50 877.20 L 149.60 874.10 L 141.50 871.20 L 135.00 868.50 L 130.00 865.80 L 126.30 863.50 L 123.70 861.20 L 121.80 859.20 L 120.60 857.20 L 119.80 855.30 L 119.60 853.40 L 119.80 851.50 L 120.60 849.60 L 121.80 847.70 L 123.70 845.60 L 126.30 843.40 L 130.00 841.00 L 135.00 838.40 L 141.50 835.60 L 149.60 832.70 L 159.50 829.70 L 172.50 826.30 L 187.80 823.00 L 205.90 819.60 L 224.00 816.80 L 244.20 814.00 L 289.30 809.00 L 313.60 806.80 L 365.80 803.30 L 422.40 800.80 L 451.40 800.10 L 512.50 799.40 Z M 512.50 805.40 L 473.10 805.70 L 435.00 806.50 L 397.40 807.80 L 361.80 809.50 L 327.00 811.80 L 294.70 814.50 L 253.80 818.80 L 235.50 821.20 L 201.90 826.40 L 173.90 832.20 L 162.10 835.20 L 152.30 838.10 L 139.00 843.20 L 130.90 847.50 L 128.30 849.50 L 125.80 852.40 L 125.60 853.40 L 125.80 854.40 L 126.80 855.90 L 130.90 859.30 L 139.00 863.70 L 152.30 868.70 L 162.10 871.70 L 173.90 874.70 L 187.80 877.70 L 217.70 883.00 L 235.50 885.70 L 273.50 890.20 L 294.70 892.30 L 327.00 895.00 L 361.80 897.30 L 397.40 899.10 L 435.00 900.40 L 473.10 901.10 L 512.50 901.40 L 551.90 901.10 L 590.00 900.40 L 627.50 899.10 L 663.20 897.30 L 698.00 895.00 L 730.30 892.30 L 751.50 890.20 L 789.50 885.70 L 807.30 883.00 L 837.10 877.70 L 851.10 874.70 L 862.90 871.70 L 872.70 868.70 L 886.00 863.70 L 894.10 859.30 L 896.60 857.40 L 899.20 854.40 L 899.40 853.40 L 899.20 852.40 L 898.20 850.90 L 894.10 847.50 L 890.60 845.40 L 880.10 840.70 L 872.70 838.10 L 862.90 835.20 L 851.10 832.20 L 823.10 826.40 L 789.50 821.20 L 771.20 818.80 L 730.30 814.50 L 698.00 811.80 L 663.20 809.50 L 627.50 807.80 L 590.00 806.50 L 551.90 805.70 L 512.50 805.40 Z" fill="url(#linearGradient-8)" fill-rule="nonzero" group-id="2" id="椭圆形备份-7" node-id="86" stroke="none" target-height="107.79999" target-width="785.80005" target-x="119.6" target-y="799.4"></path><path d="M 512.60 603.80 L 564.10 604.40 L 588.50 605.10 L 636.10 607.30 L 680.20 610.40 L 719.60 614.30 L 738.60 616.60 L 770.90 621.60 L 786.10 624.60 L 799.00 627.50 L 809.90 630.40 L 818.30 633.10 L 825.10 635.60 L 830.60 638.10 L 834.80 640.40 L 838.40 642.90 L 840.80 645.20 L 842.40 647.30 L 843.30 649.30 L 843.60 651.30 L 843.30 653.30 L 842.40 655.40 L 840.80 657.50 L 838.40 659.80 L 834.80 662.20 L 830.60 664.60 L 825.10 667.00 L 818.30 669.60 L 809.90 672.20 L 799.00 675.10 L 786.10 678.10 L 770.90 681.00 L 755.60 683.60 L 738.60 686.00 L 700.60 690.40 L 658.20 694.00 L 612.90 696.60 L 588.50 697.60 L 538.80 698.70 L 486.40 698.70 L 461.10 698.30 L 412.30 696.60 L 367.00 694.00 L 345.00 692.30 L 305.60 688.40 L 286.60 686.00 L 254.30 681.00 L 239.10 678.10 L 226.10 675.10 L 215.20 672.20 L 206.90 669.60 L 200.10 667.00 L 194.60 664.60 L 190.30 662.20 L 186.80 659.80 L 184.40 657.50 L 182.80 655.40 L 181.90 653.30 L 181.60 651.30 L 181.90 649.30 L 182.80 647.30 L 184.40 645.20 L 186.80 642.90 L 190.30 640.40 L 194.60 638.10 L 200.10 635.60 L 206.90 633.10 L 215.20 630.40 L 226.10 627.50 L 239.10 624.60 L 254.30 621.60 L 269.60 619.10 L 286.60 616.60 L 324.50 612.20 L 345.00 610.40 L 389.00 607.30 L 436.70 605.10 L 461.10 604.40 L 512.60 603.80 Z M 512.60 609.80 L 479.40 610.10 L 447.40 610.80 L 415.70 611.90 L 385.70 613.50 L 356.40 615.50 L 329.20 617.80 L 302.90 620.60 L 279.40 623.70 L 264.40 626.00 L 239.30 630.60 L 227.60 633.30 L 209.50 638.50 L 201.60 641.50 L 195.80 644.20 L 191.80 646.70 L 189.50 648.50 L 188.20 649.90 L 187.60 651.30 L 188.20 652.70 L 189.50 654.20 L 191.80 656.00 L 195.80 658.40 L 201.60 661.10 L 209.50 664.10 L 227.60 669.30 L 239.30 672.00 L 264.40 676.70 L 279.40 679.00 L 302.90 682.10 L 329.20 684.90 L 356.40 687.20 L 385.70 689.20 L 415.70 690.80 L 447.40 691.90 L 479.40 692.60 L 512.60 692.80 L 545.70 692.60 L 577.80 691.90 L 609.50 690.80 L 639.40 689.20 L 668.80 687.20 L 695.90 684.90 L 722.20 682.10 L 745.80 679.00 L 760.70 676.70 L 785.80 672.00 L 797.60 669.30 L 815.60 664.10 L 823.60 661.10 L 829.40 658.40 L 833.40 656.00 L 835.70 654.20 L 837.00 652.70 L 837.60 651.30 L 837.00 649.90 L 835.70 648.50 L 833.40 646.70 L 829.40 644.20 L 823.60 641.50 L 815.60 638.50 L 797.60 633.30 L 785.80 630.60 L 760.70 626.00 L 745.80 623.70 L 722.20 620.60 L 695.90 617.80 L 668.80 615.50 L 639.40 613.50 L 609.50 611.90 L 577.80 610.80 L 545.70 610.10 L 512.60 609.80 Z" fill="url(#linearGradient-10)" fill-rule="nonzero" group-id="2" id="椭圆形备份-3" node-id="87" stroke="none" target-height="94.900024" target-width="662" target-x="181.6" target-y="603.8"></path><path d="M 512.10 562.30 L 553.10 562.60 L 592.00 563.40 L 630.10 564.70 L 665.30 566.50 L 699.50 568.80 L 730.10 571.40 L 750.00 573.40 L 784.00 577.80 L 800.10 580.30 L 813.70 582.90 L 834.00 587.70 L 846.90 592.10 L 851.40 594.10 L 855.20 596.30 L 857.80 598.30 L 859.40 600.10 L 860.30 601.90 L 860.60 603.50 L 860.30 605.20 L 859.40 606.90 L 857.80 608.80 L 855.20 610.80 L 851.40 613.00 L 846.90 615.00 L 834.00 619.40 L 813.70 624.20 L 800.10 626.80 L 784.00 629.30 L 750.00 633.70 L 730.10 635.70 L 699.50 638.30 L 665.30 640.60 L 630.10 642.30 L 592.00 643.70 L 553.10 644.50 L 512.10 644.80 L 471.10 644.50 L 432.20 643.70 L 394.10 642.30 L 358.80 640.60 L 324.70 638.30 L 294.10 635.70 L 274.20 633.70 L 240.10 629.30 L 224.10 626.80 L 210.50 624.20 L 190.20 619.40 L 177.30 615.00 L 172.80 613.00 L 169.00 610.80 L 166.40 608.80 L 164.80 606.90 L 163.90 605.20 L 163.60 603.50 L 163.90 601.90 L 164.80 600.10 L 166.40 598.30 L 169.00 596.30 L 172.80 594.10 L 177.30 592.10 L 190.20 587.70 L 210.50 582.90 L 224.10 580.30 L 240.10 577.80 L 274.20 573.40 L 294.10 571.40 L 324.70 568.80 L 358.80 566.50 L 394.10 564.70 L 432.20 563.40 L 471.10 562.60 L 512.10 562.30 Z M 512.10 568.30 L 477.10 568.50 L 443.40 569.10 L 410.00 570.10 L 378.40 571.50 L 347.50 573.20 L 318.90 575.20 L 291.20 577.70 L 266.40 580.30 L 243.40 583.30 L 224.10 586.40 L 211.70 588.70 L 192.60 593.30 L 184.10 595.90 L 177.90 598.30 L 173.70 600.40 L 171.20 602.00 L 169.70 603.50 L 171.20 605.00 L 173.70 606.60 L 177.90 608.80 L 184.10 611.20 L 192.60 613.80 L 211.70 618.30 L 224.10 620.70 L 243.40 623.70 L 266.40 626.70 L 291.20 629.40 L 318.90 631.80 L 347.50 633.90 L 378.40 635.60 L 410.00 637.00 L 443.40 637.90 L 477.10 638.50 L 512.10 638.80 L 547.00 638.50 L 580.80 637.90 L 614.10 637.00 L 645.70 635.60 L 676.70 633.90 L 705.30 631.80 L 733.00 629.40 L 757.80 626.70 L 780.80 623.70 L 800.10 620.70 L 812.50 618.30 L 831.60 613.80 L 840.10 611.20 L 846.20 608.80 L 850.50 606.60 L 852.90 605.00 L 854.50 603.50 L 852.90 602.00 L 850.50 600.40 L 846.20 598.30 L 840.10 595.90 L 831.60 593.30 L 812.50 588.70 L 800.10 586.40 L 780.80 583.30 L 757.80 580.30 L 733.00 577.70 L 705.30 575.20 L 676.70 573.20 L 645.70 571.50 L 614.10 570.10 L 580.80 569.10 L 547.00 568.50 L 512.10 568.30 Z" fill="url(#linearGradient-11)" fill-rule="nonzero" group-id="2" id="椭圆形备份-4" node-id="88" stroke="none" target-height="82.5" target-width="697" target-x="163.6" target-y="562.3"></path><path d="M 826.60 727.40 L 826.60 833.80 L 826.30 835.20 L 825.50 836.70 L 824.10 838.40 L 821.70 840.10 L 818.30 842.10 L 812.70 844.50 L 804.90 847.00 L 794.60 849.70 L 772.00 854.20 L 757.50 856.50 L 735.10 859.40 L 708.80 862.10 L 681.20 864.40 L 650.40 866.40 L 618.60 867.90 L 584.20 869.10 L 549.10 869.80 L 512.10 870.10 L 475.10 869.80 L 440.00 869.10 L 405.60 867.90 L 373.80 866.40 L 343.00 864.40 L 315.40 862.10 L 289.10 859.40 L 266.70 856.50 L 252.20 854.20 L 229.60 849.70 L 219.30 847.00 L 211.50 844.50 L 205.90 842.10 L 202.40 840.10 L 200.10 838.40 L 198.60 836.70 L 197.90 835.20 L 197.60 833.80 L 197.60 727.40 L 826.60 727.40 Z" fill="url(#linearGradient-12)" fill-rule="evenodd" group-id="2" id="形状结合" node-id="89" stroke="none" target-height="142.69995" target-width="629" target-x="197.6" target-y="727.4"></path><path d="M 819.60 727.70 L 819.30 729.20 L 818.50 730.70 L 817.10 732.40 L 814.80 734.10 L 811.40 736.10 L 805.90 738.50 L 798.40 741.00 L 788.30 743.70 L 766.20 748.20 L 752.00 750.50 L 730.10 753.40 L 704.40 756.10 L 677.40 758.40 L 647.30 760.40 L 616.20 761.90 L 582.60 763.10 L 548.20 763.80 L 512.10 764.10 L 475.90 763.80 L 441.60 763.10 L 408.00 761.90 L 376.80 760.40 L 346.70 758.40 L 319.80 756.10 L 294.00 753.40 L 272.10 750.50 L 258.00 748.20 L 235.80 743.70 L 225.80 741.00 L 218.20 738.50 L 212.70 736.10 L 209.30 734.10 L 207.10 732.40 L 205.60 730.70 L 204.80 729.20 L 204.60 727.70 L 204.80 726.30 L 205.60 724.70 L 207.10 723.10 L 209.30 721.30 L 212.70 719.40 L 218.20 717.00 L 225.80 714.50 L 235.80 711.80 L 258.00 707.30 L 272.10 705.00 L 294.00 702.10 L 319.80 699.40 L 346.70 697.10 L 376.80 695.10 L 408.00 693.60 L 441.60 692.40 L 475.90 691.70 L 512.10 691.40 L 548.20 691.70 L 582.60 692.40 L 616.20 693.60 L 647.30 695.10 L 677.40 697.10 L 704.40 699.40 L 730.10 702.10 L 752.00 705.00 L 766.20 707.30 L 788.30 711.80 L 798.40 714.50 L 805.90 717.00 L 811.40 719.40 L 814.80 721.30 L 817.10 723.10 L 818.50 724.70 L 819.30 726.30 L 819.60 727.70 Z" fill="url(#radialGradient-13)" fill-rule="evenodd" group-id="2" id="椭圆形" node-id="90" stroke="none" target-height="72.69995" target-width="615" target-x="204.6" target-y="691.4"></path><path d="M 512.10 684.40 L 573.10 685.10 L 630.70 687.20 L 683.60 690.60 L 708.20 692.70 L 730.30 695.10 L 751.10 697.80 L 768.50 700.60 L 779.70 702.70 L 797.30 706.90 L 805.60 709.50 L 812.00 712.00 L 816.80 714.40 L 822.10 718.20 L 824.00 720.30 L 825.40 722.60 L 826.30 725.00 L 826.60 727.70 L 826.30 730.50 L 825.40 732.90 L 824.00 735.20 L 822.10 737.30 L 819.80 739.20 L 816.80 741.10 L 812.00 743.50 L 805.60 746.00 L 797.30 748.60 L 779.70 752.80 L 768.50 754.90 L 751.10 757.70 L 730.30 760.40 L 708.20 762.80 L 683.60 764.90 L 658.20 766.70 L 602.60 769.50 L 543.10 770.90 L 481.10 770.90 L 421.50 769.50 L 393.50 768.30 L 340.60 764.90 L 315.90 762.80 L 293.80 760.40 L 273.10 757.70 L 255.70 754.90 L 244.40 752.80 L 226.90 748.60 L 218.50 746.00 L 212.10 743.50 L 207.30 741.10 L 204.40 739.20 L 202.00 737.30 L 200.20 735.20 L 198.80 732.90 L 197.90 730.50 L 197.60 727.70 L 197.90 725.00 L 198.80 722.60 L 200.20 720.30 L 202.00 718.20 L 204.40 716.30 L 207.30 714.40 L 212.10 712.00 L 218.50 709.50 L 226.90 706.90 L 234.90 704.80 L 255.70 700.60 L 273.10 697.80 L 293.80 695.10 L 315.90 692.70 L 340.60 690.60 L 393.50 687.20 L 451.10 685.10 L 512.10 684.40 Z M 512.10 691.40 L 475.90 691.70 L 441.60 692.40 L 408.00 693.60 L 376.80 695.10 L 346.70 697.10 L 319.80 699.40 L 294.00 702.10 L 272.10 705.00 L 258.00 707.30 L 235.80 711.80 L 225.80 714.50 L 218.20 717.00 L 212.70 719.40 L 209.30 721.30 L 207.10 723.10 L 205.60 724.70 L 204.80 726.30 L 204.60 727.70 L 204.80 729.20 L 205.60 730.70 L 207.10 732.40 L 209.30 734.10 L 212.70 736.10 L 218.20 738.50 L 225.80 741.00 L 235.80 743.70 L 258.00 748.20 L 272.10 750.50 L 294.00 753.40 L 319.80 756.10 L 346.70 758.40 L 376.80 760.40 L 408.00 761.90 L 441.60 763.10 L 475.90 763.80 L 512.10 764.10 L 548.20 763.80 L 582.60 763.10 L 616.20 761.90 L 647.30 760.40 L 677.40 758.40 L 704.40 756.10 L 730.10 753.40 L 752.00 750.50 L 766.20 748.20 L 788.30 743.70 L 798.40 741.00 L 805.90 738.50 L 811.40 736.10 L 814.80 734.10 L 817.10 732.40 L 818.50 730.70 L 819.30 729.20 L 819.60 727.70 L 819.30 726.30 L 818.50 724.70 L 817.10 723.10 L 814.80 721.30 L 811.40 719.40 L 805.90 717.00 L 798.40 714.50 L 788.30 711.80 L 766.20 707.30 L 752.00 705.00 L 730.10 702.10 L 704.40 699.40 L 677.40 697.10 L 647.30 695.10 L 616.20 693.60 L 582.60 692.40 L 548.20 691.70 L 512.10 691.40 Z" fill="url(#linearGradient-14)" fill-rule="nonzero" group-id="2" id="椭圆形" node-id="91" stroke="none" target-height="86.5" target-width="629" target-x="197.6" target-y="684.4"></path><path d="M 513.00 764.00 L 570.40 763.30 L 625.90 761.10 L 677.70 757.80 L 702.00 755.60 L 724.00 753.30 L 745.10 750.70 L 763.20 748.00 L 774.80 745.90 L 793.30 741.80 L 801.70 739.40 L 808.00 737.10 L 812.70 735.00 L 815.50 733.30 L 817.40 731.80 L 818.60 730.40 L 819.30 729.00 L 819.50 727.80 L 818.60 725.10 L 817.40 723.70 L 815.50 722.20 L 812.60 720.50 L 808.00 718.40 L 801.60 716.10 L 793.20 713.80 L 774.70 709.70 L 744.90 705.00 L 723.80 702.30 L 701.80 700.10 L 652.30 696.20 L 598.30 693.50 L 541.40 692.00 L 483.60 692.00 L 427.10 693.50 L 373.60 696.20 L 324.70 700.10 L 303.00 702.30 L 282.20 705.00 L 264.40 707.70 L 243.10 711.70 L 226.50 716.10 L 220.30 718.40 L 215.70 720.50 L 212.90 722.20 L 211.10 723.70 L 209.90 725.10 L 209.20 726.50 L 209.00 727.80 L 209.20 729.00 L 209.90 730.40 L 213.00 733.30 L 215.70 735.00 L 220.30 737.10 L 226.60 739.40 L 234.80 741.80 L 253.00 745.90 L 264.60 748.00 L 282.40 750.70 L 303.20 753.30 L 325.00 755.60 L 349.10 757.80 L 400.50 761.10 L 455.70 763.30 L 513.00 764.00 Z" fill="url(#radialGradient-15)" fill-rule="evenodd" group-id="2" id="椭圆形" node-id="92" stroke="none" target-height="72" target-width="610.5" target-x="209" target-y="692"></path><path d="M 646.60 726.90 L 646.30 728.00 L 645.50 729.20 L 643.80 730.50 L 640.90 731.90 L 636.40 733.60 L 629.60 735.40 L 620.10 737.30 L 607.50 739.20 L 594.60 740.70 L 564.40 743.00 L 530.80 744.20 L 513.10 744.30 L 495.40 744.20 L 461.80 743.00 L 431.60 740.70 L 418.70 739.20 L 406.00 737.30 L 396.60 735.40 L 389.70 733.60 L 385.20 731.90 L 382.40 730.50 L 380.70 729.20 L 379.90 728.00 L 379.60 726.90 L 379.90 725.80 L 380.70 724.70 L 382.40 723.40 L 385.20 721.90 L 389.70 720.30 L 396.60 718.40 L 406.00 716.50 L 418.70 714.60 L 431.60 713.10 L 461.80 710.80 L 495.40 709.70 L 513.10 709.50 L 530.80 709.70 L 564.40 710.80 L 594.60 713.10 L 607.50 714.60 L 620.10 716.50 L 629.60 718.40 L 636.40 720.30 L 640.90 721.90 L 643.80 723.40 L 645.50 724.70 L 646.30 725.80 L 646.60 726.90 Z" fill="url(#radialGradient-16)" fill-rule="evenodd" group-id="2" id="椭圆形备份-8" node-id="93" stroke="none" target-height="34.799988" target-width="266.99997" target-x="379.6" target-y="709.5"></path></g><g node-id="313"><path d="M 242.00 384.50 L 241.70 387.50 L 241.00 390.30 L 239.70 392.80 L 238.10 395.10 L 236.10 397.10 L 233.80 398.70 L 231.30 400.00 L 228.50 400.70 L 225.50 401.00 L 222.50 400.70 L 219.70 400.00 L 217.20 398.70 L 214.90 397.10 L 212.90 395.10 L 211.30 392.80 L 210.00 390.30 L 209.30 387.50 L 209.00 384.50 L 209.30 381.50 L 210.00 378.70 L 211.30 376.20 L 212.90 373.90 L 214.90 371.90 L 217.20 370.30 L 219.70 369.00 L 222.50 368.30 L 225.50 368.00 L 228.50 368.30 L 231.30 369.00 L 233.80 370.30 L 236.10 371.90 L 238.10 373.90 L 239.70 376.20 L 241.00 378.70 L 241.70 381.50 L 242.00 384.50 Z" fill="url(#radialGradient1)" fill-rule="evenodd" group-id="3" id="椭圆形" node-id="95" stroke="none" target-height="33" target-width="33" target-x="209" target-y="368"></path><path d="M 326.00 179.50 L 325.20 183.90 L 324.30 185.80 L 321.60 189.10 L 317.90 191.20 L 313.50 192.00 L 309.10 191.20 L 305.40 189.10 L 302.70 185.80 L 301.20 181.80 L 301.00 179.50 L 301.20 177.20 L 301.80 175.10 L 303.90 171.40 L 307.20 168.70 L 309.10 167.80 L 313.50 167.00 L 317.90 167.80 L 319.80 168.70 L 323.10 171.40 L 325.20 175.10 L 326.00 179.50 Z" fill="url(#radialGradient2)" fill-rule="evenodd" group-id="3" id="椭圆形备份-9" node-id="96" stroke="none" target-height="25" target-width="25" target-x="301" target-y="167"></path><path d="M 630.00 158.50 L 629.70 160.80 L 628.80 162.80 L 627.50 164.50 L 625.80 165.80 L 623.80 166.70 L 621.50 167.00 L 619.20 166.70 L 617.20 165.80 L 615.50 164.50 L 614.20 162.80 L 613.30 160.80 L 613.00 158.50 L 613.30 156.20 L 614.20 154.20 L 615.50 152.50 L 617.20 151.20 L 619.20 150.30 L 621.50 150.00 L 623.80 150.30 L 625.80 151.20 L 627.50 152.50 L 628.80 154.20 L 629.70 156.20 L 630.00 158.50 Z" fill="url(#radialGradient3)" fill-rule="evenodd" group-id="3" id="椭圆形备份-10" node-id="97" stroke="none" target-height="17" target-width="17" target-x="613" target-y="150"></path><path d="M 564.00 78.50 L 563.30 82.20 L 561.50 85.30 L 558.80 87.60 L 557.20 88.30 L 553.50 89.00 L 549.80 88.30 L 546.70 86.50 L 544.40 83.80 L 543.20 80.40 L 543.20 76.60 L 543.70 74.80 L 545.50 71.70 L 548.20 69.40 L 549.80 68.70 L 553.50 68.00 L 557.20 68.70 L 558.80 69.40 L 561.50 71.70 L 563.30 74.80 L 564.00 78.50 Z" fill="url(#radialGradient4)" fill-rule="evenodd" group-id="3" id="椭圆形备份-11" node-id="98" stroke="none" target-height="21" target-width="20.799988" target-x="543.2" target-y="68"></path><path d="M 749.00 286.00 L 748.80 288.40 L 748.20 290.50 L 747.20 292.60 L 744.40 295.90 L 740.50 298.20 L 738.40 298.80 L 736.00 299.00 L 733.60 298.80 L 731.50 298.20 L 727.60 295.90 L 724.80 292.60 L 723.20 288.40 L 723.00 286.00 L 723.20 283.60 L 723.80 281.50 L 726.10 277.60 L 729.40 274.80 L 731.50 273.80 L 733.60 273.20 L 736.00 273.00 L 738.40 273.20 L 740.50 273.80 L 744.40 276.10 L 747.20 279.40 L 748.20 281.50 L 749.00 286.00 Z" fill="url(#radialGradient5)" fill-rule="evenodd" group-id="3" id="椭圆形备份-12" node-id="99" stroke="none" target-height="26" target-width="26" target-x="723" target-y="273"></path><path d="M 824.00 430.00 L 823.80 432.40 L 823.20 434.50 L 820.90 438.40 L 817.60 441.20 L 815.50 442.20 L 811.00 443.00 L 808.60 442.80 L 806.50 442.20 L 802.60 439.90 L 799.80 436.60 L 798.80 434.50 L 798.20 432.40 L 798.00 430.00 L 798.20 427.60 L 798.80 425.50 L 801.10 421.60 L 804.40 418.80 L 806.50 417.80 L 811.00 417.00 L 815.50 417.80 L 817.60 418.80 L 820.90 421.60 L 823.20 425.50 L 824.00 430.00 Z" fill="url(#radialGradient6)" fill-rule="evenodd" group-id="3" id="椭圆形备份-13" node-id="100" stroke="none" target-height="26" target-width="26" target-x="798" target-y="417"></path><path d="M 736.00 610.00 L 735.20 614.50 L 732.90 618.40 L 729.60 621.20 L 727.50 622.20 L 725.40 622.80 L 723.00 623.00 L 720.60 622.80 L 718.50 622.20 L 714.60 619.90 L 711.80 616.60 L 710.80 614.50 L 710.20 612.40 L 710.00 610.00 L 710.20 607.60 L 710.80 605.50 L 713.10 601.60 L 716.40 598.80 L 718.50 597.80 L 723.00 597.00 L 725.40 597.20 L 727.50 597.80 L 729.60 598.80 L 732.90 601.60 L 735.20 605.50 L 736.00 610.00 Z" fill="url(#radialGradient7)" fill-rule="evenodd" group-id="3" id="椭圆形备份-14" node-id="101" stroke="none" target-height="26" target-width="26" target-x="710" target-y="597"></path><path d="M 268.00 649.00 L 267.80 651.40 L 267.20 653.50 L 264.90 657.40 L 261.60 660.20 L 259.50 661.20 L 257.40 661.80 L 255.00 662.00 L 250.50 661.20 L 246.60 658.90 L 243.80 655.60 L 242.80 653.50 L 242.20 651.40 L 242.00 649.00 L 242.20 646.60 L 242.80 644.50 L 245.10 640.60 L 248.40 637.80 L 250.50 636.80 L 255.00 636.00 L 259.50 636.80 L 263.40 639.10 L 266.20 642.40 L 267.20 644.50 L 267.80 646.60 L 268.00 649.00 Z" fill="url(#radialGradient8)" fill-rule="evenodd" group-id="3" id="椭圆形备份-15" node-id="102" stroke="none" target-height="26" target-width="26" target-x="242" target-y="636"></path><path d="M 801.00 870.00 L 800.70 872.90 L 800.00 875.60 L 798.80 878.10 L 797.20 880.30 L 795.30 882.20 L 793.10 883.80 L 790.60 885.00 L 787.90 885.70 L 785.00 886.00 L 782.10 885.70 L 779.40 885.00 L 776.90 883.80 L 774.70 882.20 L 772.80 880.30 L 771.20 878.10 L 770.00 875.60 L 769.30 872.90 L 769.00 870.00 L 769.30 867.10 L 770.00 864.40 L 771.20 861.90 L 772.80 859.70 L 774.70 857.80 L 776.90 856.20 L 779.40 855.00 L 782.10 854.30 L 785.00 854.00 L 787.90 854.30 L 790.60 855.00 L 793.10 856.20 L 795.30 857.80 L 797.20 859.70 L 798.80 861.90 L 800.00 864.40 L 800.70 867.10 L 801.00 870.00 Z" fill="url(#radialGradient-17)" fill-rule="evenodd" group-id="3" id="椭圆形备份-16" node-id="103" stroke="none" target-height="32" target-width="32" target-x="769" target-y="854"></path></g></svg>